<?xml version="1.0" standalone="no"?>
<!DOCTYPE svg PUBLIC "-//W3C//DTD SVG 20010904//EN"
 "http://www.w3.org/TR/2001/REC-SVG-20010904/DTD/svg10.dtd">
<svg version="1.0" xmlns="http://www.w3.org/2000/svg"
 width="720.000000pt" height="720.000000pt" viewBox="0 0 720.000000 720.000000"
 preserveAspectRatio="xMidYMid meet">
<metadata>
Created by potrace 1.14, written by Peter Selinger 2001-2017
</metadata>
<g transform="translate(0.000000,720.000000) scale(0.100000,-0.100000)"
fill="#000000" stroke="none">
<path d="M3315 7194 c-1221 -66 -2193 -596 -2766 -1509 -246 -391 -415 -865
-489 -1370 -37 -258 -45 -375 -44 -725 0 -370 11 -513 59 -798 108 -634 364
-1201 741 -1641 556 -648 1306 -1019 2274 -1127 197 -22 770 -25 965 -6 695
70 1246 261 1745 603 259 177 550 462 732 715 360 502 565 1080 640 1804 19
190 16 774 -6 970 -87 780 -333 1398 -763 1917 -98 118 -316 333 -433 427
-139 111 -374 262 -540 345 -404 205 -814 322 -1315 376 -135 15 -651 27 -800
19z m680 -1368 c229 -37 400 -92 610 -197 213 -105 319 -183 495 -359 249
-249 411 -516 520 -855 87 -274 114 -471 115 -835 0 -299 -6 -366 -51 -580
-158 -744 -678 -1286 -1414 -1474 -241 -61 -329 -71 -665 -71 -328 0 -414 9
-643 65 -675 165 -1163 612 -1376 1260 -90 273 -121 516 -113 869 12 530 130
940 379 1315 331 499 844 806 1463 876 125 14 563 5 680 -14z"/>
<path d="M4157 3710 c-212 -38 -398 -159 -513 -331 -164 -248 -164 -560 1
-809 97 -145 258 -262 430 -312 114 -32 296 -32 410 0 221 64 417 236 500 439
91 226 65 479 -70 683 -96 144 -259 263 -425 310 -85 24 -257 34 -333 20z"/>
</g>
</svg>
